<svg xmlns="http://www.w3.org/2000/svg" viewBox="0 0 20 20" height="20" width="20"><title>square.svg</title><rect fill="none" x="0" y="0" width="20" height="20"></rect><path fill="#000" transform="translate(2 2)" d="M12 13H3C2.4477 13 2 12.5523 2 12V3C2 2.4477 2.4477 2 3 2H12C12.5523 2 13 2.4477 13 3V12C13 12.5523 12.5523 13 12 13Z" style="stroke-linejoin:round;stroke-miterlimit:4;" stroke="#000" stroke-width="1"></path><path fill="#52e820" transform="translate(2 2)" d="M12 13H3C2.4477 13 2 12.5523 2 12V3C2 2.4477 2.4477 2 3 2H12C12.5523 2 13 2.4477 13 3V12C13 12.5523 12.5523 13 12 13Z"></path></svg>